<svg width="108" height="108" viewBox="0 0 108 108" fill="none" xmlns="http://www.w3.org/2000/svg">
<circle cx="54" cy="54" r="54" fill="#FC7D36"/>
<circle cx="54.0008" cy="54.0008" r="47.7" stroke="#FAFBFF" stroke-width="3"/>
<path d="M50.75 68.8281C50.75 69.6901 51.0924 70.5167 51.7019 71.1262C52.3114 71.7357 53.138 72.0781 54 72.0781C54.862 72.0781 55.6886 71.7357 56.2981 71.1262C56.9076 70.5167 57.25 69.6901 57.25 68.8281C57.25 67.9662 56.9076 67.1395 56.2981 66.53C55.6886 65.9205 54.862 65.5781 54 65.5781C53.138 65.5781 52.3114 65.9205 51.7019 66.53C51.0924 67.1395 50.75 67.9662 50.75 68.8281ZM52.375 60.2969H55.625C55.8484 60.2969 56.0312 60.1141 56.0312 59.8906V36.3281C56.0312 36.1047 55.8484 35.9219 55.625 35.9219H52.375C52.1516 35.9219 51.9688 36.1047 51.9688 36.3281V59.8906C51.9688 60.1141 52.1516 60.2969 52.375 60.2969Z" fill="#FAFBFF"/>
</svg>
