<svg width="68" height="68" viewBox="0 0 68 68" fill="none" xmlns="http://www.w3.org/2000/svg">
<path d="M34.0013 67.3333C15.6002 67.3131 0.688177 52.4011 0.667969 34V33.3333C1.03441 15.0151 16.1166 0.42651 34.4369 0.66959C52.7572 0.912669 67.447 15.8963 67.3273 34.2178C67.2075 52.5393 52.3232 67.3296 34.0013 67.3333ZM33.948 60.6667H34.0013C48.7237 60.6519 60.6487 48.7091 60.6413 33.9867C60.6339 19.2643 48.697 7.33333 33.9746 7.33333C19.2522 7.33333 7.31533 19.2643 7.30797 33.9867C7.30061 48.7091 19.2256 60.6519 33.948 60.6667ZM37.3346 54H30.668V47.3333H37.3346V54ZM37.3346 44H30.668C30.5626 39.6589 32.8218 35.6026 36.568 33.4067C38.768 31.72 40.668 30.2667 40.668 27.3333C40.668 23.6514 37.6832 20.6667 34.0013 20.6667C30.3194 20.6667 27.3346 23.6514 27.3346 27.3333H20.668V27.0333C20.7216 22.2698 23.3124 17.8967 27.4645 15.5613C31.6167 13.226 36.6993 13.2831 40.7979 15.7113C44.8964 18.1395 47.3882 22.5698 47.3346 27.3333C47.0959 30.93 45.1668 34.2009 42.1346 36.15C39.3936 37.8706 37.6171 40.776 37.3346 44Z" fill="#FAAC31"/>
</svg>
