<svg width="80" height="83" viewBox="0 0 80 83" fill="none" xmlns="http://www.w3.org/2000/svg">
<path d="M40 0.946289C47.9112 0.946289 55.6448 3.32353 62.2228 7.77739C68.8008 12.2312 73.9277 18.5617 76.9552 25.9682C79.9827 33.3747 80.7748 41.5246 79.2314 49.3873C77.688 57.25 73.8784 64.4723 68.2843 70.141C62.6902 75.8097 55.5628 79.6701 47.8036 81.2341C40.0444 82.7981 32.0017 81.9954 24.6927 78.9275C17.3836 75.8596 11.1365 70.6644 6.74121 63.9987C2.34596 57.333 0 49.4963 0 41.4796C0 30.7295 4.21427 20.4197 11.7157 12.8182C19.2172 5.21675 29.3913 0.946289 40 0.946289V0.946289Z" fill="#00A859"/>
<path d="M26.4863 41.8655L35.335 52.2299L52.1998 32.4727" fill="#00A859"/>
<path d="M26.4863 41.8655L35.335 52.23L52.1998 32.4727" stroke="white" stroke-width="4" stroke-linecap="round"/>
</svg>
