<svg width="108" height="108" viewBox="0 0 108 108" fill="none" xmlns="http://www.w3.org/2000/svg">
<circle cx="54" cy="54" r="54" fill="#FF7875"/>
<circle cx="54.0008" cy="54.0008" r="47.7" stroke="#FAFBFF" stroke-width="3"/>
<path d="M56.6309 54L69.9609 38.1105C70.1844 37.8465 69.9965 37.4453 69.6512 37.4453H65.5988C65.3602 37.4453 65.1317 37.552 64.9742 37.7348L53.9801 50.8414L42.986 37.7348C42.8336 37.552 42.6051 37.4453 42.3613 37.4453H38.309C37.9637 37.4453 37.7758 37.8465 37.9992 38.1105L51.3293 54L37.9992 69.8895C37.9492 69.9483 37.9171 70.0203 37.9067 70.0969C37.8964 70.1734 37.9082 70.2514 37.9408 70.3214C37.9734 70.3914 38.0254 70.4507 38.0907 70.492C38.156 70.5334 38.2317 70.5551 38.309 70.5547H42.3613C42.6 70.5547 42.8285 70.448 42.986 70.2652L53.9801 57.1586L64.9742 70.2652C65.1266 70.448 65.3551 70.5547 65.5988 70.5547H69.6512C69.9965 70.5547 70.1844 70.1535 69.9609 69.8895L56.6309 54Z" fill="#FAFBFF"/>
</svg>
